<?xml version="1.0" standalone="no"?>
<!DOCTYPE svg PUBLIC "-//W3C//DTD SVG 20010904//EN"
 "http://www.w3.org/TR/2001/REC-SVG-20010904/DTD/svg10.dtd">
<svg version="1.0" xmlns="http://www.w3.org/2000/svg"
 width="400.000000pt" height="400.000000pt" viewBox="0 0 400.000000 400.000000"
 preserveAspectRatio="xMidYMid meet">
<metadata>
Created by potrace 1.14, written by Peter Selinger 2001-2017
</metadata>
<g transform="translate(0.000000,400.000000) scale(0.100000,-0.100000)"
fill="#000000" stroke="none">
<path d="M2942 3446 c25 -25 67 -75 93 -113 49 -70 236 -262 275 -283 15 -8
20 -8 16 -1 -4 6 -14 36 -21 66 -32 121 -115 240 -202 292 -48 28 -178 83
-196 83 -6 0 10 -20 35 -44z"/>
<path d="M964 3446 c-208 -92 -272 -172 -330 -411 -4 -17 -3 -18 8 -5 7 8 40
37 73 64 77 63 101 90 185 206 37 52 87 114 110 138 23 23 38 42 34 41 -5 -1
-41 -15 -80 -33z"/>
<path d="M3270 3300 c44 -45 64 -91 99 -227 17 -67 38 -141 46 -164 19 -52 15
-59 -9 -15 -21 40 -93 105 -196 178 -41 29 -89 72 -107 96 -37 49 -39 47 -18
-22 32 -104 73 -155 228 -279 53 -43 114 -100 134 -125 20 -26 40 -51 44 -55
4 -5 4 5 0 22 -3 17 -4 82 -1 143 8 185 -9 267 -74 353 -36 47 -46 56 -105 96
-58 38 -78 37 -41 -1z"/>
<path d="M643 3280 c-56 -32 -124 -109 -149 -169 -25 -60 -28 -105 -24 -349
l2 -102 28 37 c42 57 78 93 156 155 130 103 207 210 220 304 5 33 4 36 -7 19
-23 -38 -65 -78 -159 -150 -109 -84 -129 -103 -164 -165 -32 -56 -32 -51 -1
37 13 40 34 116 46 170 25 114 48 168 91 212 38 39 28 39 -39 1z"/>
<path d="M3510 3099 c0 -3 8 -21 18 -40 17 -34 19 -120 9 -404 -1 -44 1 -107
4 -140 9 -75 4 -82 -10 -15 -17 78 -53 140 -122 205 -35 33 -91 88 -125 123
l-62 62 19 -62 c28 -95 70 -172 160 -293 80 -108 139 -213 139 -247 0 -39 18
-15 30 40 7 31 26 93 42 136 40 110 50 159 49 251 -1 99 -29 203 -75 282 -35
59 -75 113 -76 102z"/>
<path d="M411 3035 c-79 -110 -117 -246 -108 -384 4 -59 17 -109 56 -215 28
-76 51 -149 51 -162 0 -13 5 -24 10 -24 6 0 10 7 10 16 0 28 62 144 124 232
94 133 124 187 151 267 30 90 33 122 7 84 -9 -14 -62 -70 -117 -125 -103 -102
-138 -155 -162 -249 l-13 -50 6 68 c8 102 7 164 -6 255 -20 146 -15 244 16
303 21 42 12 36 -25 -16z"/>
<path d="M3703 2579 c0 -75 -19 -144 -75 -271 -22 -51 -55 -149 -74 -218 -19
-69 -31 -105 -27 -80 19 128 0 202 -96 363 -33 56 -67 119 -76 140 -8 20 -17
37 -19 37 -6 0 5 -113 19 -195 10 -56 46 -190 77 -285 24 -76 30 -113 31 -184
0 -77 2 -86 14 -70 7 10 54 72 103 136 88 113 119 168 139 245 39 149 38 316
-3 414 -13 32 -13 31 -13 -32z"/>
<path d="M252 2583 c-51 -128 -32 -376 39 -514 10 -21 56 -84 101 -142 46 -57
93 -117 106 -133 13 -16 20 -24 17 -17 -17 36 -5 165 25 269 18 60 33 114 34
119 1 6 5 19 9 30 16 52 47 249 46 300 0 37 -1 38 -11 15 -22 -55 -44 -98 -79
-152 -72 -113 -114 -258 -98 -335 3 -18 3 -33 -1 -33 -5 0 -13 24 -18 53 -12
61 -19 91 -28 120 -8 25 -80 193 -95 220 -17 31 -37 134 -35 181 1 25 1 46 0
46 -1 0 -6 -12 -12 -27z m195 -625 c-3 -8 -6 -5 -6 6 -1 11 2 17 5 13 3 -3 4
-12 1 -19z"/>
<path d="M3350 2125 c-30 -79 -46 -160 -55 -280 -16 -204 -26 -280 -52 -360
-8 -27 -22 -61 -30 -73 -8 -13 -13 -25 -11 -27 6 -6 275 177 331 226 101 88
181 214 206 324 14 64 20 164 9 171 -4 3 -8 -2 -8 -12 0 -46 -68 -151 -160
-248 -53 -55 -127 -144 -165 -196 -87 -122 -92 -127 -56 -55 50 103 57 178 32
321 -22 120 -24 140 -25 186 -1 27 -2 48 -4 48 -1 0 -7 -11 -12 -25z"/>
<path d="M607 2064 c-4 -38 -14 -103 -23 -144 -28 -132 -17 -262 31 -348 36
-65 11 -40 -47 46 -29 42 -91 118 -139 167 -135 139 -168 185 -195 270 l-13
40 0 -62 c-3 -223 106 -379 392 -567 82 -54 151 -96 153 -93 2 2 -8 30 -22 61
-27 58 -46 164 -58 309 -11 143 -38 298 -64 366 -7 20 -10 12 -15 -45z"/>
<path d="M3190 1728 c-69 -94 -101 -159 -151 -303 -48 -141 -88 -224 -135
-282 -19 -23 -34 -44 -34 -46 0 -3 21 1 48 9 26 7 101 25 167 39 142 30 218
64 321 146 110 88 204 225 219 320 4 26 3 29 -4 13 -18 -41 -115 -135 -175
-171 -33 -20 -108 -60 -166 -90 -114 -60 -141 -77 -211 -135 -50 -40 -81 -53
-39 -15 98 87 143 190 170 397 6 47 20 109 29 138 10 28 17 52 15 52 -1 0 -26
-32 -54 -72z"/>
<path d="M730 1768 c0 -4 5 -19 11 -35 12 -33 27 -108 44 -218 17 -121 58
-207 139 -294 l51 -55 -49 35 c-26 19 -68 48 -91 64 -24 17 -108 64 -188 104
-156 79 -232 136 -279 210 l-28 46 6 -35 c20 -109 137 -261 273 -357 82 -58
162 -86 316 -112 66 -12 135 -25 153 -30 l33 -10 -44 49 c-54 60 -85 123 -147
295 -34 95 -64 158 -103 217 -60 89 -96 137 -97 126z"/>
<path d="M2960 1399 c-14 -12 -37 -30 -51 -42 -15 -12 -79 -73 -143 -135 -132
-127 -164 -150 -256 -182 -36 -12 -72 -25 -80 -27 -14 -6 12 -14 85 -28 17 -4
77 -18 135 -32 70 -17 141 -27 215 -29 97 -3 119 0 185 22 117 40 257 144 299
223 16 29 9 27 -43 -13 -68 -51 -159 -79 -306 -91 -36 -3 -81 -7 -100 -10 -19
-2 -59 -7 -89 -10 -30 -4 -61 -8 -70 -10 -9 -1 -36 -5 -61 -9 -45 -6 -44 -6
17 18 111 42 158 92 230 242 20 44 45 91 56 107 22 32 12 35 -23 6z"/>
<path d="M980 1406 c0 -2 15 -30 33 -63 18 -32 46 -84 62 -117 35 -69 95 -140
139 -163 17 -9 56 -25 86 -35 51 -17 52 -18 15 -14 -22 3 -51 7 -64 10 -28 6
-88 13 -181 21 -169 13 -208 18 -257 31 -63 16 -139 54 -170 83 -63 60 -14
-20 53 -85 58 -58 117 -96 199 -130 64 -27 80 -29 195 -29 111 0 143 4 285 39
205 49 198 46 145 61 -118 32 -169 64 -326 212 -109 102 -214 190 -214 179z"/>
<path d="M1745 1003 c-75 -8 -180 -41 -319 -100 -144 -62 -156 -65 -251 -70
-104 -6 -192 10 -239 43 -41 29 -40 13 2 -25 96 -84 226 -134 344 -130 130 4
203 32 353 134 124 85 172 107 230 104 49 -3 58 -13 23 -25 -60 -19 -222 -132
-320 -222 l-47 -44 34 -29 c33 -29 55 -37 55 -20 0 6 38 47 84 93 84 85 207
177 269 203 33 14 37 13 93 -21 90 -54 157 -108 250 -199 l85 -84 35 31 c34
30 34 31 17 51 -50 56 -275 213 -340 238 -43 16 -24 27 43 23 63 -3 70 -6 167
-72 168 -113 269 -152 397 -152 119 0 255 57 335 140 l40 42 -35 -21 c-84 -48
-234 -65 -341 -37 -31 8 -110 38 -175 66 -65 28 -156 59 -201 69 -95 20 -236
20 -298 -1 -33 -11 -49 -11 -90 -1 -52 14 -148 21 -200 16z"/>
</g>
</svg>
